<svg width="139" height="138" viewBox="0 0 139 138" fill="none" xmlns="http://www.w3.org/2000/svg">
<g clip-path="url(#clip0_3_3)">
<rect width="139" height="135" transform="translate(0 3)" fill="#1D1A1A"/>
<g opacity="0.05">
<path d="M44.9629 79.65C55.1629 77.75 60.2629 72.5 60.2629 63.9C60.2629 60.1 59.7629 53.6 58.7629 44.4C57.7629 34.6 57.2629 27.5 57.2629 23.1C57.2629 15.9 59.2629 10.4 63.2629 6.6C67.3629 2.8 72.8129 0.899998 79.6129 0.899998H88.3129V12.75H82.1629C78.2629 12.75 75.3629 13.65 73.4629 15.45C71.5629 17.15 70.6129 20 70.6129 24C70.6129 26.9 70.8129 30.5 71.2129 34.8C71.6129 39 71.8629 41.85 71.9629 43.35C72.9629 52.95 73.4629 59.95 73.4629 64.35C73.4629 69.65 72.1129 74.1 69.4129 77.7C66.8129 81.2 62.7629 83.55 57.2629 84.75V85.05C62.7629 86.25 66.8129 88.65 69.4129 92.25C72.1129 95.85 73.4629 100.3 73.4629 105.6C73.4629 110 72.9629 117 71.9629 126.6C71.8629 128.1 71.6129 131 71.2129 135.3C70.8129 139.5 70.6129 143.05 70.6129 145.95C70.6129 149.95 71.5629 152.8 73.4629 154.5C75.3629 156.3 78.2629 157.2 82.1629 157.2H88.3129V169.05H79.6129C72.8129 169.05 67.3629 167.15 63.2629 163.35C59.2629 159.55 57.2629 154.05 57.2629 146.85C57.2629 142.45 57.7629 135.35 58.7629 125.55C59.7629 116.35 60.2629 109.85 60.2629 106.05C60.2629 97.45 55.1629 92.2 44.9629 90.3V79.65ZM152.05 90.3C141.85 92.2 136.75 97.45 136.75 106.05C136.75 109.85 137.25 116.35 138.25 125.55C139.25 135.35 139.75 142.45 139.75 146.85C139.75 154.05 137.7 159.55 133.6 163.35C129.6 167.15 124.2 169.05 117.4 169.05H108.7V157.2H114.85C118.75 157.2 121.65 156.3 123.55 154.5C125.45 152.8 126.4 149.95 126.4 145.95C126.4 143.05 126.2 139.5 125.8 135.3C125.4 131 125.15 128.1 125.05 126.6C124.05 117 123.55 110 123.55 105.6C123.55 100.3 124.85 95.85 127.45 92.25C130.15 88.65 134.25 86.25 139.75 85.05V84.75C134.25 83.55 130.15 81.2 127.45 77.7C124.85 74.1 123.55 69.65 123.55 64.35C123.55 59.95 124.05 52.95 125.05 43.35C125.15 41.85 125.4 39 125.8 34.8C126.2 30.5 126.4 26.9 126.4 24C126.4 20 125.45 17.15 123.55 15.45C121.65 13.65 118.75 12.75 114.85 12.75H108.7V0.899998H117.4C124.2 0.899998 129.6 2.8 133.6 6.6C137.7 10.4 139.75 15.9 139.75 23.1C139.75 27.5 139.25 34.6 138.25 44.4C137.25 53.6 136.75 60.1 136.75 63.9C136.75 72.5 141.85 77.75 152.05 79.65V90.3Z" fill="url(#paint0_linear_3_3)"/>
<path d="M44.9629 79.65L44.7798 78.6669L43.9629 78.8191V79.65H44.9629ZM58.7629 44.4L57.768 44.5015L57.7687 44.5081L58.7629 44.4ZM63.2629 6.6L62.5831 5.86651L62.5741 5.875L63.2629 6.6ZM88.3129 0.899998H89.3129V-0.100002H88.3129V0.899998ZM88.3129 12.75V13.75H89.3129V12.75H88.3129ZM73.4629 15.45L74.1297 16.1952L74.1403 16.1857L74.1506 16.176L73.4629 15.45ZM71.2129 34.8L70.2172 34.8926L70.2174 34.8948L71.2129 34.8ZM71.9629 43.35L70.9651 43.4165L70.9663 43.4351L70.9683 43.4536L71.9629 43.35ZM69.4129 77.7L68.6129 77.1L68.6101 77.1037L69.4129 77.7ZM57.2629 84.75L57.0497 83.773L56.2629 83.9447V84.75H57.2629ZM57.2629 85.05H56.2629V85.8553L57.0497 86.027L57.2629 85.05ZM69.4129 92.25L68.6022 92.8355L68.6075 92.8428L68.6129 92.85L69.4129 92.25ZM71.9629 126.6L70.9683 126.496L70.9663 126.515L70.9651 126.533L71.9629 126.6ZM71.2129 135.3L72.2084 135.395L72.2086 135.393L71.2129 135.3ZM73.4629 154.5L74.1506 153.774L74.1403 153.764L74.1297 153.755L73.4629 154.5ZM88.3129 157.2H89.3129V156.2H88.3129V157.2ZM88.3129 169.05V170.05H89.3129V169.05H88.3129ZM63.2629 163.35L62.5741 164.075L62.5831 164.083L63.2629 163.35ZM58.7629 125.55L57.7687 125.442L57.7681 125.448L58.7629 125.55ZM44.9629 90.3H43.9629V91.1309L44.7798 91.2831L44.9629 90.3ZM45.146 80.6331C50.3675 79.6605 54.4122 77.808 57.1552 74.9843C59.9179 72.1403 61.2629 68.4114 61.2629 63.9H59.2629C59.2629 67.9886 58.0579 71.1847 55.7206 73.5907C53.3636 76.017 49.7583 77.7395 44.7798 78.6669L45.146 80.6331ZM61.2629 63.9C61.2629 60.04 60.757 53.4915 59.757 44.2919L57.7687 44.5081C58.7688 53.7085 59.2629 60.16 59.2629 63.9H61.2629ZM59.7577 44.2985C58.758 34.5014 58.2629 27.4451 58.2629 23.1H56.2629C56.2629 27.5549 56.7678 34.6986 57.7681 44.5015L59.7577 44.2985ZM58.2629 23.1C58.2629 16.0864 60.2061 10.8833 63.9516 7.325L62.5741 5.875C58.3197 9.91672 56.2629 15.7136 56.2629 23.1H58.2629ZM63.9427 7.33343C67.8195 3.74022 73.0075 1.9 79.6129 1.9V-0.100002C72.6183 -0.100002 66.9062 1.85977 62.5831 5.86657L63.9427 7.33343ZM79.6129 1.9H88.3129V-0.100002H79.6129V1.9ZM87.3129 0.899998V12.75H89.3129V0.899998H87.3129ZM88.3129 11.75H82.1629V13.75H88.3129V11.75ZM82.1629 11.75C78.1303 11.75 74.9344 12.6785 72.7751 14.724L74.1506 16.176C75.7914 14.6215 78.3955 13.75 82.1629 13.75V11.75ZM72.7961 14.7048C70.5887 16.6798 69.6129 19.8753 69.6129 24H71.6129C71.6129 20.1247 72.5371 17.6202 74.1297 16.1952L72.7961 14.7048ZM69.6129 24C69.6129 26.9419 69.8156 30.5751 70.2172 34.8926L72.2086 34.7074C71.8102 30.4249 71.6129 26.8581 71.6129 24H69.6129ZM70.2174 34.8948C70.6176 39.0965 70.8662 41.9328 70.9651 43.4165L72.9607 43.2835C72.8596 41.7672 72.6082 38.9035 72.2084 34.7052L70.2174 34.8948ZM70.9683 43.4536C71.9679 53.0498 72.4629 60.0057 72.4629 64.35H74.4629C74.4629 59.8943 73.9579 52.8502 72.9575 43.2464L70.9683 43.4536ZM72.4629 64.35C72.4629 69.4734 71.1611 73.7024 68.6129 77.1L70.2129 78.3C73.0647 74.4976 74.4629 69.8266 74.4629 64.35H72.4629ZM68.6101 77.1037C66.1921 80.3588 62.384 82.6091 57.0497 83.773L57.4761 85.727C63.1418 84.4909 67.4337 82.0412 70.2156 78.2963L68.6101 77.1037ZM56.2629 84.75V85.05H58.2629V84.75H56.2629ZM57.0497 86.027C62.3757 87.1891 66.1819 89.4842 68.6022 92.8355L70.2236 91.6645C67.4439 87.8158 63.15 85.3109 57.4761 84.073L57.0497 86.027ZM68.6129 92.85C71.1611 96.2476 72.4629 100.477 72.4629 105.6H74.4629C74.4629 100.123 73.0647 95.4524 70.2129 91.65L68.6129 92.85ZM72.4629 105.6C72.4629 109.944 71.9679 116.9 70.9683 126.496L72.9575 126.704C73.9579 117.1 74.4629 110.056 74.4629 105.6H72.4629ZM70.9651 126.533C70.8661 128.018 70.6174 130.906 70.2172 135.207L72.2086 135.393C72.6084 131.094 72.8597 128.182 72.9607 126.667L70.9651 126.533ZM70.2174 135.205C69.8156 139.424 69.6129 143.008 69.6129 145.95H71.6129C71.6129 143.092 71.8102 139.576 72.2084 135.395L70.2174 135.205ZM69.6129 145.95C69.6129 150.075 70.5887 153.27 72.7961 155.245L74.1297 153.755C72.5371 152.33 71.6129 149.825 71.6129 145.95H69.6129ZM72.7751 155.226C74.9344 157.272 78.1303 158.2 82.1629 158.2V156.2C78.3955 156.2 75.7914 155.328 74.1506 153.774L72.7751 155.226ZM82.1629 158.2H88.3129V156.2H82.1629V158.2ZM87.3129 157.2V169.05H89.3129V157.2H87.3129ZM88.3129 168.05H79.6129V170.05H88.3129V168.05ZM79.6129 168.05C73.0075 168.05 67.8195 166.21 63.9427 162.617L62.5831 164.083C66.9062 168.09 72.6183 170.05 79.6129 170.05V168.05ZM63.9516 162.625C60.2061 159.067 58.2629 153.864 58.2629 146.85H56.2629C56.2629 154.236 58.3197 160.033 62.5741 164.075L63.9516 162.625ZM58.2629 146.85C58.2629 142.505 58.758 135.449 59.7577 125.652L57.7681 125.448C56.7678 135.251 56.2629 142.395 56.2629 146.85H58.2629ZM59.757 125.658C60.757 116.458 61.2629 109.91 61.2629 106.05H59.2629C59.2629 109.79 58.7688 116.242 57.7687 125.442L59.757 125.658ZM61.2629 106.05C61.2629 101.539 59.9179 97.8097 57.1552 94.9657C54.4122 92.142 50.3675 90.2895 45.146 89.3169L44.7798 91.2831C49.7583 92.2105 53.3636 93.933 55.7206 96.3593C58.0579 98.7653 59.2629 101.961 59.2629 106.05H61.2629ZM45.9629 90.3V79.65H43.9629V90.3H45.9629ZM152.05 90.3L152.233 91.2831L153.05 91.1309V90.3H152.05ZM138.25 125.55L139.245 125.448L139.244 125.442L138.25 125.55ZM133.6 163.35L132.92 162.617L132.911 162.625L133.6 163.35ZM108.7 169.05H107.7V170.05H108.7V169.05ZM108.7 157.2V156.2H107.7V157.2H108.7ZM123.55 154.5L122.883 153.755L122.873 153.764L122.862 153.774L123.55 154.5ZM125.8 135.3L124.804 135.393L124.805 135.395L125.8 135.3ZM125.05 126.6L126.048 126.533L126.047 126.515L126.045 126.496L125.05 126.6ZM127.45 92.25L126.65 91.65L126.645 91.6572L126.639 91.6645L127.45 92.25ZM139.75 85.05L139.963 86.027L140.75 85.8553V85.05H139.75ZM139.75 84.75H140.75V83.9447L139.963 83.773L139.75 84.75ZM127.45 77.7L126.639 78.2855L126.649 78.2983L126.658 78.3108L127.45 77.7ZM125.05 43.35L126.045 43.4536L126.047 43.4351L126.048 43.4165L125.05 43.35ZM125.8 34.8L126.795 34.8948L126.796 34.8926L125.8 34.8ZM123.55 15.45L122.862 16.176L122.873 16.1857L122.883 16.1952L123.55 15.45ZM108.7 12.75H107.7V13.75H108.7V12.75ZM108.7 0.899998V-0.100002H107.7V0.899998H108.7ZM133.6 6.6L132.911 7.32505L132.92 7.33343L133.6 6.6ZM138.25 44.4L139.244 44.5081L139.245 44.5015L138.25 44.4ZM152.05 79.65H153.05V78.8191L152.233 78.6669L152.05 79.65ZM151.867 89.3169C146.645 90.2895 142.601 92.142 139.858 94.9657C137.095 97.8097 135.75 101.539 135.75 106.05H137.75C137.75 101.961 138.955 98.7653 141.292 96.3593C143.649 93.933 147.255 92.2105 152.233 91.2831L151.867 89.3169ZM135.75 106.05C135.75 109.91 136.256 116.458 137.256 125.658L139.244 125.442C138.244 116.242 137.75 109.79 137.75 106.05H135.75ZM137.255 125.652C138.255 135.449 138.75 142.505 138.75 146.85H140.75C140.75 142.395 140.245 135.251 139.245 125.448L137.255 125.652ZM138.75 146.85C138.75 153.856 136.761 159.057 132.92 162.617L134.28 164.083C138.639 160.043 140.75 154.244 140.75 146.85H138.75ZM132.911 162.625C129.138 166.21 124.006 168.05 117.4 168.05V170.05C124.394 170.05 130.062 168.091 134.289 164.075L132.911 162.625ZM117.4 168.05H108.7V170.05H117.4V168.05ZM109.7 169.05V157.2H107.7V169.05H109.7ZM108.7 158.2H114.85V156.2H108.7V158.2ZM114.85 158.2C118.883 158.2 122.079 157.272 124.238 155.226L122.862 153.774C121.221 155.328 118.617 156.2 114.85 156.2V158.2ZM124.217 155.245C126.424 153.27 127.4 150.075 127.4 145.95H125.4C125.4 149.825 124.476 152.33 122.883 153.755L124.217 155.245ZM127.4 145.95C127.4 143.008 127.197 139.424 126.795 135.205L124.805 135.395C125.203 139.576 125.4 143.092 125.4 145.95H127.4ZM126.796 135.207C126.396 130.906 126.147 128.018 126.048 126.533L124.052 126.667C124.153 128.182 124.404 131.094 124.804 135.393L126.796 135.207ZM126.045 126.496C125.045 116.9 124.55 109.944 124.55 105.6H122.55C122.55 110.056 123.055 117.1 124.055 126.704L126.045 126.496ZM124.55 105.6C124.55 100.468 125.806 96.2341 128.261 92.8355L126.639 91.6645C123.894 95.4659 122.55 100.132 122.55 105.6H124.55ZM128.25 92.85C130.773 89.4866 134.637 87.1891 139.963 86.027L139.537 84.073C133.863 85.3109 129.527 87.8134 126.65 91.65L128.25 92.85ZM140.75 85.05V84.75H138.75V85.05H140.75ZM139.963 83.773C134.629 82.6091 130.762 80.3566 128.242 77.0892L126.658 78.3108C129.538 82.0434 133.871 84.4909 139.537 85.727L139.963 83.773ZM128.261 77.1145C125.806 73.7159 124.55 69.4815 124.55 64.35H122.55C122.55 69.8185 123.894 74.4841 126.639 78.2855L128.261 77.1145ZM124.55 64.35C124.55 60.0057 125.045 53.0498 126.045 43.4536L124.055 43.2464C123.055 52.8502 122.55 59.8943 122.55 64.35H124.55ZM126.048 43.4165C126.147 41.9328 126.395 39.0965 126.795 34.8948L124.805 34.7052C124.405 38.9035 124.153 41.7672 124.052 43.2835L126.048 43.4165ZM126.796 34.8926C127.197 30.5751 127.4 26.9419 127.4 24H125.4C125.4 26.8581 125.203 30.4249 124.804 34.7074L126.796 34.8926ZM127.4 24C127.4 19.8753 126.424 16.6798 124.217 14.7048L122.883 16.1952C124.476 17.6202 125.4 20.1247 125.4 24H127.4ZM124.238 14.724C122.079 12.6785 118.883 11.75 114.85 11.75V13.75C118.617 13.75 121.221 14.6215 122.862 16.176L124.238 14.724ZM114.85 11.75H108.7V13.75H114.85V11.75ZM109.7 12.75V0.899998H107.7V12.75H109.7ZM108.7 1.9H117.4V-0.100002H108.7V1.9ZM117.4 1.9C124.006 1.9 129.138 3.7405 132.911 7.325L134.289 5.875C130.062 1.8595 124.394 -0.100002 117.4 -0.100002V1.9ZM132.92 7.33343C136.761 10.8933 138.75 16.0935 138.75 23.1H140.75C140.75 15.7065 138.639 9.90666 134.28 5.86657L132.92 7.33343ZM138.75 23.1C138.75 27.4451 138.255 34.5014 137.255 44.2985L139.245 44.5015C140.245 34.6986 140.75 27.5549 140.75 23.1H138.75ZM137.256 44.2919C136.256 53.4915 135.75 60.04 135.75 63.9H137.75C137.75 60.16 138.244 53.7085 139.244 44.5081L137.256 44.2919ZM135.75 63.9C135.75 68.4114 137.095 72.1403 139.858 74.9843C142.601 77.808 146.645 79.6605 151.867 80.6331L152.233 78.6669C147.255 77.7395 143.649 76.017 141.292 73.5907C138.955 71.1847 137.75 67.9886 137.75 63.9H135.75ZM151.05 79.65V90.3H153.05V79.65H151.05Z" fill="black"/>
</g>
<g opacity="0.05">
<path d="M-3.03711 65.65C7.16289 63.75 12.2629 58.5 12.2629 49.9C12.2629 46.1 11.7629 39.6 10.7629 30.4C9.76289 20.6 9.26289 13.5 9.26289 9.1C9.26289 1.9 11.2629 -3.60001 15.2629 -7.4C19.3629 -11.2 24.8129 -13.1 31.6129 -13.1H40.3129V-1.25H34.1629C30.2629 -1.25 27.3629 -0.350003 25.4629 1.45C23.5629 3.14999 22.6129 5.99999 22.6129 10C22.6129 12.9 22.8129 16.5 23.2129 20.8C23.6129 25 23.8629 27.85 23.9629 29.35C24.9629 38.95 25.4629 45.95 25.4629 50.35C25.4629 55.65 24.1129 60.1 21.4129 63.7C18.8129 67.2 14.7629 69.55 9.26289 70.75V71.05C14.7629 72.25 18.8129 74.65 21.4129 78.25C24.1129 81.85 25.4629 86.3 25.4629 91.6C25.4629 96 24.9629 103 23.9629 112.6C23.8629 114.1 23.6129 117 23.2129 121.3C22.8129 125.5 22.6129 129.05 22.6129 131.95C22.6129 135.95 23.5629 138.8 25.4629 140.5C27.3629 142.3 30.2629 143.2 34.1629 143.2H40.3129V155.05H31.6129C24.8129 155.05 19.3629 153.15 15.2629 149.35C11.2629 145.55 9.26289 140.05 9.26289 132.85C9.26289 128.45 9.76289 121.35 10.7629 111.55C11.7629 102.35 12.2629 95.85 12.2629 92.05C12.2629 83.45 7.16289 78.2 -3.03711 76.3V65.65ZM104.05 76.3C93.85 78.2 88.75 83.45 88.75 92.05C88.75 95.85 89.25 102.35 90.25 111.55C91.25 121.35 91.75 128.45 91.75 132.85C91.75 140.05 89.7 145.55 85.6 149.35C81.6 153.15 76.2 155.05 69.4 155.05H60.7V143.2H66.85C70.75 143.2 73.65 142.3 75.55 140.5C77.45 138.8 78.4 135.95 78.4 131.95C78.4 129.05 78.2 125.5 77.8 121.3C77.4 117 77.15 114.1 77.05 112.6C76.05 103 75.55 96 75.55 91.6C75.55 86.3 76.85 81.85 79.45 78.25C82.15 74.65 86.25 72.25 91.75 71.05V70.75C86.25 69.55 82.15 67.2 79.45 63.7C76.85 60.1 75.55 55.65 75.55 50.35C75.55 45.95 76.05 38.95 77.05 29.35C77.15 27.85 77.4 25 77.8 20.8C78.2 16.5 78.4 12.9 78.4 10C78.4 5.99999 77.45 3.14999 75.55 1.45C73.65 -0.350003 70.75 -1.25 66.85 -1.25H60.7V-13.1H69.4C76.2 -13.1 81.6 -11.2 85.6 -7.4C89.7 -3.60001 91.75 1.9 91.75 9.1C91.75 13.5 91.25 20.6 90.25 30.4C89.25 39.6 88.75 46.1 88.75 49.9C88.75 58.5 93.85 63.75 104.05 65.65V76.3Z" fill="url(#paint1_linear_3_3)"/>
<path d="M-3.03711 65.65L-3.22023 64.6669L-4.03711 64.8191V65.65H-3.03711ZM10.7629 30.4L9.76804 30.5015L9.76875 30.5081L10.7629 30.4ZM15.2629 -7.4L14.5831 -8.13349L14.5741 -8.125L15.2629 -7.4ZM40.3129 -13.1H41.3129V-14.1H40.3129V-13.1ZM40.3129 -1.25V-0.250003H41.3129V-1.25H40.3129ZM25.4629 1.45L26.1297 2.19524L26.1403 2.18574L26.1506 2.17595L25.4629 1.45ZM23.2129 20.8L22.2172 20.8926L22.2174 20.8948L23.2129 20.8ZM23.9629 29.35L22.9651 29.4165L22.9663 29.4351L22.9683 29.4536L23.9629 29.35ZM21.4129 63.7L20.6129 63.1L20.6101 63.1037L21.4129 63.7ZM9.26289 70.75L9.04972 69.773L8.26289 69.9447V70.75H9.26289ZM9.26289 71.05H8.26289V71.8553L9.04972 72.027L9.26289 71.05ZM21.4129 78.25L20.6022 78.8355L20.6075 78.8428L20.6129 78.85L21.4129 78.25ZM23.9629 112.6L22.9683 112.496L22.9663 112.515L22.9651 112.533L23.9629 112.6ZM23.2129 121.3L24.2084 121.395L24.2086 121.393L23.2129 121.3ZM25.4629 140.5L26.1506 139.774L26.1403 139.764L26.1297 139.755L25.4629 140.5ZM40.3129 143.2H41.3129V142.2H40.3129V143.2ZM40.3129 155.05V156.05H41.3129V155.05H40.3129ZM15.2629 149.35L14.5741 150.075L14.5831 150.083L15.2629 149.35ZM10.7629 111.55L9.76873 111.442L9.76806 111.448L10.7629 111.55ZM-3.03711 76.3H-4.03711V77.1309L-3.22023 77.2831L-3.03711 76.3ZM-2.85398 66.6331C2.36746 65.6605 6.41218 63.808 9.15517 60.9843C11.9179 58.1403 13.2629 54.4114 13.2629 49.9H11.2629C11.2629 53.9886 10.0579 57.1847 7.72061 59.5907C5.36361 62.017 1.75832 63.7395 -3.22023 64.6669L-2.85398 66.6331ZM13.2629 49.9C13.2629 46.04 12.757 39.4915 11.757 30.2919L9.76875 30.5081C10.7688 39.7085 11.2629 46.16 11.2629 49.9H13.2629ZM11.7577 30.2985C10.758 20.5014 10.2629 13.4451 10.2629 9.1H8.26289C8.26289 13.5549 8.76776 20.6986 9.76806 30.5015L11.7577 30.2985ZM10.2629 9.1C10.2629 2.08637 12.2061 -3.11673 15.9516 -6.675L14.5741 -8.125C10.3197 -4.08328 8.26289 1.71362 8.26289 9.1H10.2629ZM15.9427 -6.66657C19.8195 -10.2598 25.0075 -12.1 31.6129 -12.1V-14.1C24.6183 -14.1 18.9062 -12.1402 14.5831 -8.13343L15.9427 -6.66657ZM31.6129 -12.1H40.3129V-14.1H31.6129V-12.1ZM39.3129 -13.1V-1.25H41.3129V-13.1H39.3129ZM40.3129 -2.25H34.1629V-0.250003H40.3129V-2.25ZM34.1629 -2.25C30.1303 -2.25 26.9344 -1.32152 24.7751 0.724046L26.1506 2.17595C27.7914 0.621518 30.3955 -0.250003 34.1629 -0.250003V-2.25ZM24.7961 0.704756C22.5887 2.67982 21.6129 5.87531 21.6129 10H23.6129C23.6129 6.12468 24.5371 3.62017 26.1297 2.19524L24.7961 0.704756ZM21.6129 10C21.6129 12.9419 21.8156 16.5751 22.2172 20.8926L24.2086 20.7074C23.8102 16.4249 23.6129 12.8581 23.6129 10H21.6129ZM22.2174 20.8948C22.6176 25.0965 22.8662 27.9328 22.9651 29.4165L24.9607 29.2835C24.8596 27.7672 24.6082 24.9035 24.2084 20.7052L22.2174 20.8948ZM22.9683 29.4536C23.9679 39.0498 24.4629 46.0057 24.4629 50.35H26.4629C26.4629 45.8943 25.9579 38.8502 24.9575 29.2464L22.9683 29.4536ZM24.4629 50.35C24.4629 55.4734 23.1611 59.7024 20.6129 63.1L22.2129 64.3C25.0647 60.4976 26.4629 55.8266 26.4629 50.35H24.4629ZM20.6101 63.1037C18.1921 66.3588 14.384 68.6091 9.04972 69.773L9.47606 71.727C15.1418 70.4909 19.4337 68.0412 22.2156 64.2963L20.6101 63.1037ZM8.26289 70.75V71.05H10.2629V70.75H8.26289ZM9.04972 72.027C14.3757 73.1891 18.1819 75.4842 20.6022 78.8355L22.2236 77.6645C19.4439 73.8158 15.15 71.3109 9.47606 70.073L9.04972 72.027ZM20.6129 78.85C23.1611 82.2476 24.4629 86.4766 24.4629 91.6H26.4629C26.4629 86.1234 25.0647 81.4524 22.2129 77.65L20.6129 78.85ZM24.4629 91.6C24.4629 95.9443 23.9679 102.9 22.9683 112.496L24.9575 112.704C25.9579 103.1 26.4629 96.0557 26.4629 91.6H24.4629ZM22.9651 112.533C22.8661 114.018 22.6174 116.906 22.2172 121.207L24.2086 121.393C24.6084 117.094 24.8597 114.182 24.9607 112.667L22.9651 112.533ZM22.2174 121.205C21.8156 125.424 21.6129 129.008 21.6129 131.95H23.6129C23.6129 129.092 23.8102 125.576 24.2084 121.395L22.2174 121.205ZM21.6129 131.95C21.6129 136.075 22.5887 139.27 24.7961 141.245L26.1297 139.755C24.5371 138.33 23.6129 135.825 23.6129 131.95H21.6129ZM24.7751 141.226C26.9344 143.272 30.1303 144.2 34.1629 144.2V142.2C30.3955 142.2 27.7914 141.328 26.1506 139.774L24.7751 141.226ZM34.1629 144.2H40.3129V142.2H34.1629V144.2ZM39.3129 143.2V155.05H41.3129V143.2H39.3129ZM40.3129 154.05H31.6129V156.05H40.3129V154.05ZM31.6129 154.05C25.0075 154.05 19.8195 152.21 15.9427 148.617L14.5831 150.083C18.9062 154.09 24.6183 156.05 31.6129 156.05V154.05ZM15.9516 148.625C12.2061 145.067 10.2629 139.864 10.2629 132.85H8.26289C8.26289 140.236 10.3197 146.033 14.5741 150.075L15.9516 148.625ZM10.2629 132.85C10.2629 128.505 10.758 121.449 11.7577 111.652L9.76806 111.448C8.76776 121.251 8.26289 128.395 8.26289 132.85H10.2629ZM11.757 111.658C12.757 102.458 13.2629 95.91 13.2629 92.05H11.2629C11.2629 95.79 10.7688 102.242 9.76875 111.442L11.757 111.658ZM13.2629 92.05C13.2629 87.5386 11.9179 83.8097 9.15517 80.9657C6.41218 78.142 2.36746 76.2895 -2.85398 75.3169L-3.22023 77.2831C1.75832 78.2105 5.36361 79.933 7.72061 82.3593C10.0579 84.7653 11.2629 87.9614 11.2629 92.05H13.2629ZM-2.03711 76.3V65.65H-4.03711V76.3H-2.03711ZM104.05 76.3L104.233 77.2831L105.05 77.1309V76.3H104.05ZM90.25 111.55L91.2449 111.448L91.2441 111.442L90.25 111.55ZM85.6 149.35L84.9202 148.617L84.9113 148.625L85.6 149.35ZM60.7 155.05H59.7V156.05H60.7V155.05ZM60.7 143.2V142.2H59.7V143.2H60.7ZM75.55 140.5L74.8832 139.755L74.8726 139.764L74.8623 139.774L75.55 140.5ZM77.8 121.3L76.8043 121.393L76.8045 121.395L77.8 121.3ZM77.05 112.6L78.0478 112.533L78.0465 112.515L78.0446 112.496L77.05 112.6ZM79.45 78.25L78.65 77.65L78.6446 77.6572L78.6393 77.6645L79.45 78.25ZM91.75 71.05L91.9632 72.027L92.75 71.8553V71.05H91.75ZM91.75 70.75H92.75V69.9447L91.9632 69.773L91.75 70.75ZM79.45 63.7L78.6393 64.2855L78.6486 64.2983L78.6582 64.3108L79.45 63.7ZM77.05 29.35L78.0446 29.4536L78.0465 29.4351L78.0478 29.4165L77.05 29.35ZM77.8 20.8L78.7955 20.8948L78.7957 20.8926L77.8 20.8ZM75.55 1.45L74.8623 2.17595L74.8726 2.18574L74.8832 2.19524L75.55 1.45ZM60.7 -1.25H59.7V-0.250003H60.7V-1.25ZM60.7 -13.1V-14.1H59.7V-13.1H60.7ZM85.6 -7.4L84.9112 -6.67495L84.9202 -6.66657L85.6 -7.4ZM90.25 30.4L91.2442 30.5081L91.2448 30.5015L90.25 30.4ZM104.05 65.65H105.05V64.8191L104.233 64.6669L104.05 65.65ZM103.867 75.3169C98.6454 76.2895 94.6007 78.142 91.8577 80.9657C89.095 83.8097 87.75 87.5386 87.75 92.05H89.75C89.75 87.9614 90.955 84.7653 93.2923 82.3593C95.6493 79.933 99.2546 78.2105 104.233 77.2831L103.867 75.3169ZM87.75 92.05C87.75 95.91 88.2559 102.458 89.2559 111.658L91.2441 111.442C90.2441 102.242 89.75 95.79 89.75 92.05H87.75ZM89.2552 111.652C90.2549 121.449 90.75 128.505 90.75 132.85H92.75C92.75 128.395 92.2451 121.251 91.2448 111.448L89.2552 111.652ZM90.75 132.85C90.75 139.856 88.7612 145.057 84.9202 148.617L86.2798 150.083C90.6388 146.043 92.75 140.244 92.75 132.85H90.75ZM84.9113 148.625C81.1381 152.21 76.0064 154.05 69.4 154.05V156.05C76.3936 156.05 82.0619 154.091 86.2888 150.075L84.9113 148.625ZM69.4 154.05H60.7V156.05H69.4V154.05ZM61.7 155.05V143.2H59.7V155.05H61.7ZM60.7 144.2H66.85V142.2H60.7V144.2ZM66.85 144.2C70.8826 144.2 74.0785 143.272 76.2377 141.226L74.8623 139.774C73.2215 141.328 70.6174 142.2 66.85 142.2V144.2ZM76.2168 141.245C78.4242 139.27 79.4 136.075 79.4 131.95H77.4C77.4 135.825 76.4758 138.33 74.8832 139.755L76.2168 141.245ZM79.4 131.95C79.4 129.008 79.1973 125.424 78.7955 121.205L76.8045 121.395C77.2027 125.576 77.4 129.092 77.4 131.95H79.4ZM78.7957 121.207C78.3955 116.906 78.1468 114.018 78.0478 112.533L76.0522 112.667C76.1532 114.182 76.4045 117.094 76.8043 121.393L78.7957 121.207ZM78.0446 112.496C77.045 102.9 76.55 95.9443 76.55 91.6H74.55C74.55 96.0557 75.055 103.1 76.0554 112.704L78.0446 112.496ZM76.55 91.6C76.55 86.4685 77.8061 82.2341 80.2607 78.8355L78.6393 77.6645C75.8939 81.4659 74.55 86.1315 74.55 91.6H76.55ZM80.25 78.85C82.7726 75.4866 86.6369 73.1891 91.9632 72.027L91.5368 70.073C85.8631 71.3109 81.5274 73.8134 78.65 77.65L80.25 78.85ZM92.75 71.05V70.75H90.75V71.05H92.75ZM91.9632 69.773C86.6288 68.6091 82.7623 66.3566 80.2418 63.0892L78.6582 64.3108C81.5377 68.0434 85.8712 70.4909 91.5368 71.727L91.9632 69.773ZM80.2607 63.1145C77.8061 59.7159 76.55 55.4815 76.55 50.35H74.55C74.55 55.8185 75.8939 60.4841 78.6393 64.2855L80.2607 63.1145ZM76.55 50.35C76.55 46.0057 77.045 39.0498 78.0446 29.4536L76.0554 29.2464C75.055 38.8502 74.55 45.8943 74.55 50.35H76.55ZM78.0478 29.4165C78.1467 27.9328 78.3953 25.0965 78.7955 20.8948L76.8045 20.7052C76.4047 24.9035 76.1533 27.7672 76.0522 29.2835L78.0478 29.4165ZM78.7957 20.8926C79.1973 16.5751 79.4 12.9419 79.4 10H77.4C77.4 12.8581 77.2027 16.4249 76.8043 20.7074L78.7957 20.8926ZM79.4 10C79.4 5.87531 78.4242 2.67982 76.2168 0.704756L74.8832 2.19524C76.4758 3.62017 77.4 6.12468 77.4 10H79.4ZM76.2377 0.724045C74.0785 -1.32152 70.8826 -2.25 66.85 -2.25V-0.250003C70.6174 -0.250003 73.2215 0.621518 74.8623 2.17595L76.2377 0.724045ZM66.85 -2.25H60.7V-0.250003H66.85V-2.25ZM61.7 -1.25V-13.1H59.7V-1.25H61.7ZM60.7 -12.1H69.4V-14.1H60.7V-12.1ZM69.4 -12.1C76.0064 -12.1 81.1381 -10.2595 84.9113 -6.675L86.2888 -8.125C82.0619 -12.1405 76.3936 -14.1 69.4 -14.1V-12.1ZM84.9202 -6.66657C88.7612 -3.10667 90.75 2.09354 90.75 9.1H92.75C92.75 1.70646 90.6388 -4.09334 86.2798 -8.13343L84.9202 -6.66657ZM90.75 9.1C90.75 13.4451 90.2549 20.5014 89.2552 30.2985L91.2448 30.5015C92.2451 20.6986 92.75 13.5549 92.75 9.1H90.75ZM89.2559 30.2919C88.2559 39.4915 87.75 46.04 87.75 49.9H89.75C89.75 46.16 90.2441 39.7085 91.2441 30.5081L89.2559 30.2919ZM87.75 49.9C87.75 54.4114 89.095 58.1403 91.8577 60.9843C94.6007 63.808 98.6454 65.6605 103.867 66.6331L104.233 64.6669C99.2546 63.7395 95.6493 62.017 93.2923 59.5907C90.955 57.1847 89.75 53.9886 89.75 49.9H87.75ZM103.05 65.65V76.3H105.05V65.65H103.05Z" fill="black"/>
</g>
</g>
<g filter="url(#filter0_dd_3_3)">
<path d="M31.8086 69.1C38.6086 67.8333 42.0086 64.3333 42.0086 58.6C42.0086 56.0667 41.6753 51.7333 41.0086 45.6C40.3419 39.0667 40.0086 34.3333 40.0086 31.4C40.0086 26.6 41.3419 22.9333 44.0086 20.4C46.7419 17.8667 50.3753 16.6 54.9086 16.6H60.7086V24.5H56.6086C54.0086 24.5 52.0753 25.1 50.8086 26.3C49.5419 27.4333 48.9086 29.3333 48.9086 32C48.9086 33.9333 49.0419 36.3333 49.3086 39.2C49.5753 42 49.7419 43.9 49.8086 44.9C50.4753 51.3 50.8086 55.9667 50.8086 58.9C50.8086 62.4333 49.9086 65.4 48.1086 67.8C46.3753 70.1333 43.6753 71.7 40.0086 72.5V72.7C43.6753 73.5 46.3753 75.1 48.1086 77.5C49.9086 79.9 50.8086 82.8667 50.8086 86.4C50.8086 89.3333 50.4753 94 49.8086 100.4C49.7419 101.4 49.5753 103.333 49.3086 106.2C49.0419 109 48.9086 111.367 48.9086 113.3C48.9086 115.967 49.5419 117.867 50.8086 119C52.0753 120.2 54.0086 120.8 56.6086 120.8H60.7086V128.7H54.9086C50.3753 128.7 46.7419 127.433 44.0086 124.9C41.3419 122.367 40.0086 118.7 40.0086 113.9C40.0086 110.967 40.3419 106.233 41.0086 99.7C41.6753 93.5667 42.0086 89.2333 42.0086 86.7C42.0086 80.9667 38.6086 77.4667 31.8086 76.2V69.1ZM103.2 76.2C96.4 77.4667 93 80.9667 93 86.7C93 89.2333 93.3333 93.5667 94 99.7C94.6667 106.233 95 110.967 95 113.9C95 118.7 93.6333 122.367 90.9 124.9C88.2333 127.433 84.6333 128.7 80.1 128.7H74.3V120.8H78.4C81 120.8 82.9333 120.2 84.2 119C85.4667 117.867 86.1 115.967 86.1 113.3C86.1 111.367 85.9667 109 85.7 106.2C85.4333 103.333 85.2667 101.4 85.2 100.4C84.5333 94 84.2 89.3333 84.2 86.4C84.2 82.8667 85.0667 79.9 86.8 77.5C88.6 75.1 91.3333 73.5 95 72.7V72.5C91.3333 71.7 88.6 70.1333 86.8 67.8C85.0667 65.4 84.2 62.4333 84.2 58.9C84.2 55.9667 84.5333 51.3 85.2 44.9C85.2667 43.9 85.4333 42 85.7 39.2C85.9667 36.3333 86.1 33.9333 86.1 32C86.1 29.3333 85.4667 27.4333 84.2 26.3C82.9333 25.1 81 24.5 78.4 24.5H74.3V16.6H80.1C84.6333 16.6 88.2333 17.8667 90.9 20.4C93.6333 22.9333 95 26.6 95 31.4C95 34.3333 94.6667 39.0667 94 45.6C93.3333 51.7333 93 56.0667 93 58.6C93 64.3333 96.4 67.8333 103.2 69.1V76.2Z" fill="url(#paint2_linear_3_3)" shape-rendering="crispEdges"/>
</g>
<path d="M73.28 37.832V49H71.04V41.736L68.048 49H66.352L63.344 41.736V49H61.104V37.832H63.648L67.2 46.136L70.752 37.832H73.28ZM70.656 69H68.416L63.344 61.336V69H61.104V57.816H63.344L68.416 65.496V57.816H70.656V69ZM65.008 77.832C66.1813 77.832 67.2107 78.0613 68.096 78.52C68.992 78.9787 69.68 79.6347 70.16 80.488C70.6507 81.3307 70.896 82.312 70.896 83.432C70.896 84.552 70.6507 85.5333 70.16 86.376C69.68 87.208 68.992 87.8533 68.096 88.312C67.2107 88.7707 66.1813 89 65.008 89H61.104V77.832H65.008ZM64.928 87.096C66.1013 87.096 67.008 86.776 67.648 86.136C68.288 85.496 68.608 84.5947 68.608 83.432C68.608 82.2693 68.288 81.3627 67.648 80.712C67.008 80.0507 66.1013 79.72 64.928 79.72H63.344V87.096H64.928ZM63.392 107.112H68.416V109H60.8V107.272L65.792 99.72H60.8V97.832H68.416V99.56L63.392 107.112Z" fill="url(#paint3_linear_3_3)"/>
<defs>
<filter id="filter0_dd_3_3" x="27.8086" y="16.6" width="79.3914" height="120.1" filterUnits="userSpaceOnUse" color-interpolation-filters="sRGB">
<feFlood flood-opacity="0" result="BackgroundImageFix"/>
<feColorMatrix in="SourceAlpha" type="matrix" values="0 0 0 0 0 0 0 0 0 0 0 0 0 0 0 0 0 0 127 0" result="hardAlpha"/>
<feOffset dy="4"/>
<feGaussianBlur stdDeviation="2"/>
<feComposite in2="hardAlpha" operator="out"/>
<feColorMatrix type="matrix" values="0 0 0 0 0 0 0 0 0 0 0 0 0 0 0 0 0 0 0.25 0"/>
<feBlend mode="normal" in2="BackgroundImageFix" result="effect1_dropShadow_3_3"/>
<feColorMatrix in="SourceAlpha" type="matrix" values="0 0 0 0 0 0 0 0 0 0 0 0 0 0 0 0 0 0 127 0" result="hardAlpha"/>
<feOffset dy="4"/>
<feGaussianBlur stdDeviation="2"/>
<feComposite in2="hardAlpha" operator="out"/>
<feColorMatrix type="matrix" values="0 0 0 0 0 0 0 0 0 0 0 0 0 0 0 0 0 0 0.25 0"/>
<feBlend mode="normal" in2="effect1_dropShadow_3_3" result="effect2_dropShadow_3_3"/>
<feBlend mode="normal" in="SourceGraphic" in2="effect2_dropShadow_3_3" result="shape"/>
</filter>
<linearGradient id="paint0_linear_3_3" x1="98.5" y1="-24" x2="98.5" y2="105" gradientUnits="userSpaceOnUse">
<stop stop-color="#41D734"/>
<stop offset="0.731884" stop-color="#39A038" stop-opacity="0.793006"/>
<stop offset="1" stop-color="#0CFFB6"/>
</linearGradient>
<linearGradient id="paint1_linear_3_3" x1="50.5" y1="-38" x2="50.5" y2="91" gradientUnits="userSpaceOnUse">
<stop stop-color="#41D734"/>
<stop offset="0.731884" stop-color="#39A038" stop-opacity="0.793006"/>
<stop offset="1" stop-color="#0CFFB6"/>
</linearGradient>
<linearGradient id="paint2_linear_3_3" x1="67.5" y1="0" x2="67.5" y2="138" gradientUnits="userSpaceOnUse">
<stop stop-color="#41D734"/>
<stop offset="0.731884" stop-color="#39A038" stop-opacity="0.793006"/>
<stop offset="1" stop-color="#0CFFB6"/>
</linearGradient>
<linearGradient id="paint3_linear_3_3" x1="67" y1="33" x2="67" y2="113" gradientUnits="userSpaceOnUse">
<stop offset="0.8875" stop-color="white"/>
<stop offset="1" stop-color="white" stop-opacity="0"/>
</linearGradient>
<clipPath id="clip0_3_3">
<rect width="139" height="135" fill="white" transform="translate(0 3)"/>
</clipPath>
</defs>
</svg>
