<svg width="139" height="138" viewBox="0 0 139 138" fill="none" xmlns="http://www.w3.org/2000/svg">
<g filter="url(#filter0_dd_3_4)">
<path d="M31.8086 69.1C38.6086 67.8333 42.0086 64.3333 42.0086 58.6C42.0086 56.0667 41.6753 51.7333 41.0086 45.6C40.3419 39.0667 40.0086 34.3333 40.0086 31.4C40.0086 26.6 41.3419 22.9333 44.0086 20.4C46.7419 17.8667 50.3753 16.6 54.9086 16.6H60.7086V24.5H56.6086C54.0086 24.5 52.0753 25.1 50.8086 26.3C49.5419 27.4333 48.9086 29.3333 48.9086 32C48.9086 33.9333 49.0419 36.3333 49.3086 39.2C49.5753 42 49.7419 43.9 49.8086 44.9C50.4753 51.3 50.8086 55.9667 50.8086 58.9C50.8086 62.4333 49.9086 65.4 48.1086 67.8C46.3753 70.1333 43.6753 71.7 40.0086 72.5V72.7C43.6753 73.5 46.3753 75.1 48.1086 77.5C49.9086 79.9 50.8086 82.8667 50.8086 86.4C50.8086 89.3333 50.4753 94 49.8086 100.4C49.7419 101.4 49.5753 103.333 49.3086 106.2C49.0419 109 48.9086 111.367 48.9086 113.3C48.9086 115.967 49.5419 117.867 50.8086 119C52.0753 120.2 54.0086 120.8 56.6086 120.8H60.7086V128.7H54.9086C50.3753 128.7 46.7419 127.433 44.0086 124.9C41.3419 122.367 40.0086 118.7 40.0086 113.9C40.0086 110.967 40.3419 106.233 41.0086 99.7C41.6753 93.5667 42.0086 89.2333 42.0086 86.7C42.0086 80.9667 38.6086 77.4667 31.8086 76.2V69.1ZM103.2 76.2C96.4 77.4667 93 80.9667 93 86.7C93 89.2333 93.3333 93.5667 94 99.7C94.6667 106.233 95 110.967 95 113.9C95 118.7 93.6333 122.367 90.9 124.9C88.2333 127.433 84.6333 128.7 80.1 128.7H74.3V120.8H78.4C81 120.8 82.9333 120.2 84.2 119C85.4667 117.867 86.1 115.967 86.1 113.3C86.1 111.367 85.9667 109 85.7 106.2C85.4333 103.333 85.2667 101.4 85.2 100.4C84.5333 94 84.2 89.3333 84.2 86.4C84.2 82.8667 85.0667 79.9 86.8 77.5C88.6 75.1 91.3333 73.5 95 72.7V72.5C91.3333 71.7 88.6 70.1333 86.8 67.8C85.0667 65.4 84.2 62.4333 84.2 58.9C84.2 55.9667 84.5333 51.3 85.2 44.9C85.2667 43.9 85.4333 42 85.7 39.2C85.9667 36.3333 86.1 33.9333 86.1 32C86.1 29.3333 85.4667 27.4333 84.2 26.3C82.9333 25.1 81 24.5 78.4 24.5H74.3V16.6H80.1C84.6333 16.6 88.2333 17.8667 90.9 20.4C93.6333 22.9333 95 26.6 95 31.4C95 34.3333 94.6667 39.0667 94 45.6C93.3333 51.7333 93 56.0667 93 58.6C93 64.3333 96.4 67.8333 103.2 69.1V76.2Z" fill="url(#paint0_linear_3_4)" shape-rendering="crispEdges"/>
</g>
<path d="M73.28 37.832V49H71.04V41.736L68.048 49H66.352L63.344 41.736V49H61.104V37.832H63.648L67.2 46.136L70.752 37.832H73.28ZM70.656 69H68.416L63.344 61.336V69H61.104V57.816H63.344L68.416 65.496V57.816H70.656V69ZM65.008 77.832C66.1813 77.832 67.2107 78.0613 68.096 78.52C68.992 78.9787 69.68 79.6347 70.16 80.488C70.6507 81.3307 70.896 82.312 70.896 83.432C70.896 84.552 70.6507 85.5333 70.16 86.376C69.68 87.208 68.992 87.8533 68.096 88.312C67.2107 88.7707 66.1813 89 65.008 89H61.104V77.832H65.008ZM64.928 87.096C66.1013 87.096 67.008 86.776 67.648 86.136C68.288 85.496 68.608 84.5947 68.608 83.432C68.608 82.2693 68.288 81.3627 67.648 80.712C67.008 80.0507 66.1013 79.72 64.928 79.72H63.344V87.096H64.928ZM63.392 107.112H68.416V109H60.8V107.272L65.792 99.72H60.8V97.832H68.416V99.56L63.392 107.112Z" fill="url(#paint1_linear_3_4)"/>
<defs>
<filter id="filter0_dd_3_4" x="27.8086" y="16.6" width="79.3914" height="120.1" filterUnits="userSpaceOnUse" color-interpolation-filters="sRGB">
<feFlood flood-opacity="0" result="BackgroundImageFix"/>
<feColorMatrix in="SourceAlpha" type="matrix" values="0 0 0 0 0 0 0 0 0 0 0 0 0 0 0 0 0 0 127 0" result="hardAlpha"/>
<feOffset dy="4"/>
<feGaussianBlur stdDeviation="2"/>
<feComposite in2="hardAlpha" operator="out"/>
<feColorMatrix type="matrix" values="0 0 0 0 0 0 0 0 0 0 0 0 0 0 0 0 0 0 0.25 0"/>
<feBlend mode="normal" in2="BackgroundImageFix" result="effect1_dropShadow_3_4"/>
<feColorMatrix in="SourceAlpha" type="matrix" values="0 0 0 0 0 0 0 0 0 0 0 0 0 0 0 0 0 0 127 0" result="hardAlpha"/>
<feOffset dy="4"/>
<feGaussianBlur stdDeviation="2"/>
<feComposite in2="hardAlpha" operator="out"/>
<feColorMatrix type="matrix" values="0 0 0 0 0 0 0 0 0 0 0 0 0 0 0 0 0 0 0.25 0"/>
<feBlend mode="normal" in2="effect1_dropShadow_3_4" result="effect2_dropShadow_3_4"/>
<feBlend mode="normal" in="SourceGraphic" in2="effect2_dropShadow_3_4" result="shape"/>
</filter>
<linearGradient id="paint0_linear_3_4" x1="67.5" y1="0" x2="67.5" y2="138" gradientUnits="userSpaceOnUse">
<stop stop-color="#41D734"/>
<stop offset="0.731884" stop-color="#39A038" stop-opacity="0.793006"/>
<stop offset="1" stop-color="#0CFFB6"/>
</linearGradient>
<linearGradient id="paint1_linear_3_4" x1="67" y1="33" x2="67" y2="113" gradientUnits="userSpaceOnUse">
<stop offset="0.8875" stop-color="white"/>
<stop offset="1" stop-color="white" stop-opacity="0"/>
</linearGradient>
</defs>
</svg>
